<?xml version="1.0" encoding="utf-8"?>
<!-- Generator: Adobe Illustrator 20.1.0, SVG Export Plug-In . SVG Version: 6.00 Build 0)  -->
<svg version="1.1" xmlns="http://www.w3.org/2000/svg" xmlns:xlink="http://www.w3.org/1999/xlink" x="0px" y="0px"
	 viewBox="0 0 51.3 49.3" style="enable-background:new 0 0 51.3 49.3;" xml:space="preserve">
<style type="text/css">
	.st0{display:none;}
	.st1{display:inline;}
	.st2{fill:#335528;}
	.st3{fill:#513A1E;}
	.st4{fill:#67451E;}
	.st5{fill:#6D6228;}
	.st6{fill:#47476C;}
	.st7{fill:#6B3841;}
	.st8{fill:#54382C;}
</style>
<g id="Layer_1" class="st0">
	<g class="st1">
		<g>
			<g>
				<path class="st2" d="M43.3,34.1c-0.6-2.7-6.7-2.8-8.6-2.8l1.8-2.4v1.5H37v-3l-3.3,4.4l0.5,0c2.2-0.1,8.1,0.1,8.6,2.4
					c0.5,2.2-2.8,3.8-3.2,3.9c-0.6,0.3-3.7,0.3-7.1,0.3V35c0-0.7-0.2-1.2-0.6-1.6c-0.8-0.7-1.9-0.7-1.9-0.7h-4.7v-2h4.3
					c0,0,1.8,0.3,2-1.3l0-2.2l6.1-0.2c0,0,4.9-0.1,4.9-4s-5.1-4.1-5.1-4.1S37.4,15,35.9,14l-11.4,0.2c-0.1,0-1.3,0-1.3,2.6
					c0,0.6,0.2,1.1,0.6,1.4c0.8,0.7,2.4,0.7,3,0.6l2,0c0.2,0,0.8-0.3,0.8-1c0-0.8-0.7-0.9-0.9-0.9l-2.2,0c-0.1,0-0.3,0.1-0.3,0.5
					l-1,0.1c-0.1-1,0.7-1.5,1.2-1.5l2.4,0c0.7,0.1,1.8,0.6,1.8,1.9c0,1.3-1.1,1.9-1.7,2l-2.1,0c0,0-0.3,0.1-0.8,0.1
					c-0.8,0-2-0.1-2.9-0.9c-0.6-0.5-0.9-1.3-0.9-2.2c0-1.4,0.3-2.4,1-3c0.6-0.6,1.2-0.6,1.3-0.6L35.1,13V11c0,0,0.6-2.8-4.4-3.1
					c0,0,0.2-2.7-5.1-2.7s-5.7,0-5.7,0s-2.3,0.7-2.3,4.4h-3.1c0,0-3.1,0-3.1,4.6s0.1,4.9,0.1,4.9S8,19,8,22.1s-0.2,7.8,5.9,8.1
					c0.4,0,1.3,0.2,1.8,0.2c1.7,0,3.6-0.4,4-1c0.5-0.8,0.7-2.2,0.3-3.1c-0.3-0.6-0.9-1-1.9-1.2c-2.5-0.3-3.6,0.1-4,0.5
					c-0.3,0.3-0.4,0.7-0.4,1.3c0,0.2,0.1,0.7,0.9,0.9c1.1,0.3,2.5,0,2.7-0.3l1,0.2c-0.1,0.9-1.7,1.2-2.8,1.2c-1.7,0-2.7-0.8-2.8-2
					c-0.1-0.9,0.2-1.6,0.7-2.1c0.9-0.8,2.4-1,4.8-0.7c1.6,0.2,2.3,1.1,2.6,1.7c0.6,1.3,0.3,3-0.3,4.1c-0.7,1.2-3.3,1.5-4.9,1.5
					c0,0-2.9,1.4-3.5,2.6c-0.2,0.4-0.8,1.9-0.1,3.2c0.4,0.9,1.4,1.4,2.7,1.9c0.2,0.1,0.8,0.5,2.8,0.5l7.8,0.1c0,0,7.6,0.3,12.2-0.3
					c2.1-0.3,2.9-0.7,3.2-1C41.6,37.7,43.8,36.5,43.3,34.1z M12.8,36.9c-0.5-1.1-0.1-2.3,0.1-2.6c0.4-0.9,2.1-1.7,3-2h1.6v2.2
					l-1.7,0c-0.1,0-1.4,0.3-1.4,2.3c0,0.8,0,1.2,0,1.5C13.6,38,13.1,37.5,12.8,36.9z M15.2,38.5c0-0.3,0-0.8,0-1.7
					c0-1.4,0.7-1.6,0.7-1.6h1.7v3.6C16.4,38.8,15.6,38.6,15.2,38.5z M28.9,38.3c-1.4,0-2.7-0.1-3.5-0.1v-0.5v-1.5l2.9,0
					c0,0,0.1,0,0.3,0.1c0.2,0.2,0.3,0.5,0.3,1V38.3z M32.1,38.3c-0.9,0-1.9,0-2.7,0v-0.9c0-0.7-0.2-1.2-0.5-1.4
					c-0.3-0.3-0.7-0.2-0.6-0.2h-2.9v-2.5h4.7c0,0,1,0,1.6,0.6c0.3,0.3,0.5,0.7,0.5,1.2V38.3z"/>
			</g>
		</g>
		<g>
			<g>
				<g>
					<g>
						<polygon class="st3" points="45.2,41.5 44.2,39.8 43.2,41.5 42.8,41.5 44.2,38.8 45.7,41.5 						"/>
					</g>
				</g>
			</g>
			<g>
				<g>
					<polygon class="st3" points="44.2,40.6 44.7,41.5 43.7,41.5 					"/>
				</g>
			</g>
		</g>
		<g>
			<g>
				<g>
					<g>
						<polygon class="st3" points="34,44.7 32.7,42.5 31.4,44.7 30.8,44.7 32.7,41.2 34.6,44.7 						"/>
					</g>
				</g>
			</g>
			<g>
				<g>
					<polygon class="st3" points="32.7,43.6 33.4,44.7 32,44.7 					"/>
				</g>
			</g>
		</g>
		<g>
			<g>
				<g>
					<g>
						<polygon class="st3" points="27.1,44.7 25.8,42.5 24.5,44.7 23.9,44.7 25.8,41.2 27.6,44.7 						"/>
					</g>
				</g>
			</g>
			<g>
				<g>
					<polygon class="st3" points="25.8,43.6 26.4,44.7 25.1,44.7 					"/>
				</g>
			</g>
		</g>
		<g>
			<g>
				<g>
					<g>
						<polygon class="st3" points="13.5,42.9 12,40.6 10.4,42.9 9.8,42.9 12,39.3 14.2,42.9 						"/>
					</g>
				</g>
			</g>
			<g>
				<g>
					<polygon class="st3" points="12,41.7 12.8,42.9 11.2,42.9 					"/>
				</g>
			</g>
		</g>
		<g>
			<g>
				<g>
					<g>
						<polygon class="st3" points="20,44.2 18.7,42.2 17.4,44.2 16.8,44.2 18.7,41.1 20.6,44.2 						"/>
					</g>
				</g>
			</g>
			<g>
				<g>
					<polygon class="st3" points="18.7,43.2 19.4,44.2 18,44.2 					"/>
				</g>
			</g>
		</g>
		<g>
			<g>
				<g>
					<g>
						<polygon class="st3" points="40,44.3 38.6,42.1 37.3,44.3 36.8,44.3 38.6,40.8 40.5,44.3 						"/>
					</g>
				</g>
			</g>
			<g>
				<g>
					<polygon class="st3" points="38.6,43.2 39.3,44.3 38,44.3 					"/>
				</g>
			</g>
		</g>
		<g>
			<g>
				<g>
					<g>
						<polygon class="st3" points="47.7,37 46.7,35.2 45.7,37 45.2,37 46.7,34.2 48.1,37 						"/>
					</g>
				</g>
			</g>
			<g>
				<g>
					<polygon class="st3" points="46.7,36.1 47.2,37 46.2,37 					"/>
				</g>
			</g>
		</g>
		<g>
			<g>
				<g>
					<g>
						<polygon class="st3" points="9.8,36.3 9,35 8.3,36.3 7.9,36.3 9,34.2 10.1,36.3 						"/>
					</g>
				</g>
			</g>
			<g>
				<g>
					<polygon class="st3" points="9,35.6 9.4,36.3 8.6,36.3 					"/>
				</g>
			</g>
		</g>
		<g>
			<g>
				<ellipse class="st4" cx="5.1" cy="33.1" rx="1.8" ry="1.3"/>
			</g>
		</g>
	</g>
</g>
<g id="Layer_2" class="st0">
	<g class="st1">
		<g>
			<path class="st5" d="M46.9,38.6c-0.9-0.9-1-2.2-1.1-2.2v-5.1h-2.9l3.7-12.7l-6.4,3.9l1.9-11.9l-9.4,8.6L32.6,9L23,17.1L20.8,6.3
				L5,29.3l0,0c0,0-0.7,0.6-0.7,1.8v5.6c0,0.4-0.1,1.1-0.3,1.3c-0.5,0.4-1.4,1.5-1.5,1.6L3.1,40c0,0,0.9-1.1,1.4-1.5
				C5,37.9,5,36.8,5,36.6V31c0-0.8,0.4-1.2,0.4-1.2c0,0,0,0,0.1,0c0-0.1,0.1-0.2,0.1-0.3c0.4-0.6,1.3-0.9,2.5-0.9h6.2
				c0.4,0,1-0.2,1-0.3c0-0.2-0.5-0.3-0.9-0.3l-2.8,0v-1h2.8c0.7,0,1.9,0.3,1.9,1.3c0,0.9-1,1.3-2,1.3H8.1c-0.8,0-1.4,0.2-1.7,0.5
				c-0.1,0.1-0.1,0.2-0.1,0.3c0.2,0.2,0.4,0.3,0.4,0.3h11.6v0l3.4,0c0.1,0,0.6,0.2,0.6,1.1v0.9l-11.7,0c-0.6,0.1-1.7,0.5-1.7,1.8
				l0,4.2c0,0,0.1,0.9-0.9,1.8c-1.1,1-1.8,1.8-1.9,1.8l0.5,0.5c0,0,0.7-0.8,1.8-1.8c1.3-1.2,1.1-2.4,1.1-2.4V36h30.1l0.3,3l0,0.1
				c0.1,0.1,1.3,3,2.7,4.3l0.5-0.5c-1.2-1.1-2.3-3.6-2.5-4l-0.3-3.2c0.1-0.4,0.2-1.7-1.5-2.5v-1c0.2-0.1,0.7-0.2,2.1-0.2h4l0,4.4
				c0,0.1,0.2,1.6,1.3,2.7c1,1,2.1,2.2,2.1,2.2l0.5-0.5C48.9,40.7,47.8,39.6,46.9,38.6z M41.9,31.3h-0.8c-2.3,0-2.7,0.3-2.8,0.5
				l-0.1,0.3l0.1,0.1v1.5l0.2,0.1c1.1,0.5,1.3,1.1,1.3,1.5H9.7v-0.8c0-0.9,0.9-1,1-1h12.4v-1.6c0-1.2-0.8-1.7-1.3-1.8h-3.5v-2.1
				h23.6V31.3z M41.9,27.1H18.3v-1.3h23.6V27.1z"/>
		</g>
		<g>
			<rect x="29.1" y="31.3" class="st5" width="1.2" height="1.2"/>
		</g>
		<g>
			<rect x="28.6" y="37.9" class="st5" width="0.6" height="0.6"/>
		</g>
		<g>
			<rect x="35.1" y="37.8" class="st5" width="1.3" height="1.3"/>
		</g>
		<g>
			<rect x="37.8" y="29.2" class="st5" width="1.2" height="1.2"/>
		</g>
		<g>
			<rect x="13" y="42.3" class="st5" width="1.3" height="1.3"/>
		</g>
		<g>
			<rect x="12.3" y="37.8" class="st5" width="0.5" height="0.5"/>
		</g>
		<g>
			<rect x="6.4" y="39.8" class="st5" width="0.5" height="0.5"/>
		</g>
		<g>
			<rect x="6.4" y="39.1" class="st5" width="0.3" height="0.3"/>
		</g>
		<g>
			<rect x="6.9" y="34.5" class="st5" width="0.7" height="0.7"/>
		</g>
		<g>
			<rect x="22.1" y="39.8" class="st5" width="0.7" height="0.7"/>
		</g>
		<g>
			<rect x="29.9" y="41.1" class="st5" width="1.3" height="0.5"/>
		</g>
		<g>
			<rect x="41.7" y="33.8" class="st5" width="0.8" height="0.8"/>
		</g>
		<g>
			<rect x="33.4" y="30.6" class="st5" width="0.9" height="0.5"/>
		</g>
		<g>
			<rect x="25" y="29.2" class="st5" width="1.1" height="0.6"/>
		</g>
		<g>
			<rect x="33.9" y="26.1" class="st5" width="0.4" height="0.4"/>
		</g>
	</g>
</g>
<g id="Layer_3" class="st0">
	<g class="st1">
		<g>
			<path class="st6" d="M9,21.9c0.2,0,3.8,0.4,6.6,0.4c0.8,0,1.6,0,2.1-0.1c2.3-0.3,5.7-0.6,6-0.7c0.6,0,3.6,0,3.8-1.1
				c0-0.1,0-0.3-0.2-0.5c-0.9-1.1-5.5-1.3-5.5-1.3c-1.6-0.1-8.5-0.8-8.6-0.8c-0.2,0-4.6-0.5-6.1,1.4c-0.4,0.5-0.5,1-0.4,1.5
				C7.2,21.6,8.9,21.9,9,21.9z M7.6,19.4c0.9-1.1,2.9-1.3,4.3-1.3c0.7,0,1.3,0.1,1.3,0.1c0.3,0,6.9,0.8,8.6,0.8
				c1.8,0.1,4.6,0.5,5.1,1.2c0.1,0.1,0.1,0.1,0,0.1c-0.1,0.5-1.8,0.7-3.3,0.7l0,0c0,0-3.6,0.3-6,0.7C15.2,22,9.1,21.4,9,21.4
				c-0.4-0.1-1.5-0.4-1.7-1C7.2,20.1,7.3,19.8,7.6,19.4z"/>
		</g>
		<g>
			<path class="st6" d="M32.3,14.5L22,14.3c-0.2,0-2.3-0.3-3.7,0.7c-0.5,0.4-0.8,0.8-0.7,1.2c0.2,0.8,1.6,1.2,1.8,1.3l0,0l0,0
				c1.3-0.1,4.9-0.3,5.9,0.2c1.4,0.7,2.8,0.9,2.9,0.9c0,0,2,0.1,4,0.1c1,0,2,0,2.8-0.1c1.1-0.1,1.6-0.3,1.8-0.8c0.2-0.5-0.1-1.2-1-2
				C34.7,14.5,32.4,14.5,32.3,14.5C32.3,14.5,32.3,14.5,32.3,14.5z M36.4,17.6c-0.1,0.2-0.3,0.4-1.4,0.5c-2.3,0.2-6.7,0-6.8,0h0
				c0,0-1.4-0.3-2.7-0.9c-1.3-0.7-5.7-0.3-6.2-0.3c-0.4-0.1-1.3-0.5-1.4-0.9c0-0.2,0.2-0.5,0.5-0.7c1.3-0.9,3.4-0.6,3.4-0.6L32.3,15
				c0,0,2.2,0,3.2,1.1C36.5,17,36.5,17.4,36.4,17.6z"/>
		</g>
		<g>
			<path class="st6" d="M25.6,13c2.2-0.3,3.8-1.8,1.1-2.8c-2.8-0.9-5.3-0.5-8.3-0.4c-3.1,0.1-5.8,1.3-5.4,2.2
				C13.3,12.9,23.4,13.3,25.6,13z"/>
		</g>
		<g>
			<path class="st6" d="M25.9,7.9c0.1,0,2.3,0.6,4,0.6c0.3,0,0.6,0,0.8-0.1c0.6-0.1,1.4-0.3,1.6-0.7c0.1,0.1,0.2,0.1,0.3,0.1
				c0.2,0,0.4-0.2,0.4-0.4c0-0.2-0.2-0.4-0.4-0.4c-0.1,0-0.2,0-0.3,0.1c-0.2-0.4-0.8-0.7-1.8-1.1c-2.7-1-6-0.4-6.1-0.3l-0.1,0
				l-0.1,0.1c0,0-0.5,0.5-0.3,1.1C24.1,7.3,24.8,7.7,25.9,7.9z M24.6,6.1C25.1,6,28,5.5,30.4,6.4C32,7,32,7.4,32,7.4
				c0,0.1-0.4,0.4-1.3,0.5c-1.6,0.2-4.6-0.5-4.7-0.5l0,0c-1.2-0.3-1.5-0.6-1.6-0.8C24.4,6.4,24.5,6.2,24.6,6.1z"/>
		</g>
		<g>
			<circle class="st6" cx="11.7" cy="29.5" r="1.3"/>
		</g>
		<g>
			<circle class="st6" cx="11.7" cy="24.6" r="0.6"/>
		</g>
		<g>
			<circle class="st6" cx="14.3" cy="14.7" r="0.6"/>
		</g>
		<g>
			<circle class="st6" cx="31.1" cy="13.4" r="0.6"/>
		</g>
		<g>
			<circle class="st6" cx="31" cy="10.1" r="0.4"/>
		</g>
		<g>
			<circle class="st6" cx="29" cy="16.8" r="0.4"/>
		</g>
		<g>
			<circle class="st6" cx="39.7" cy="34.2" r="1.3"/>
		</g>
		<g>
			<circle class="st6" cx="32.3" cy="21.3" r="0.8"/>
		</g>
		<g>
			<path class="st6" d="M32.5,24.1c0,0-10.5,0.1-12.8,0.1s-5.6,0.9-5.6,2.3s2.1,2.1,2.1,2.1h7.3l1.2,0.2c0,0,0,0,0.3,0.9
				c0.3,0.9,2,1.1,2,1.1s8.9,0.1,11.1,0s3.9-3.1,3.8-4s-2.6-0.9-3.6-0.8c-1,0.1-2-0.6-2.9-1.3C34.5,23.9,32.5,24.1,32.5,24.1z
				 M26.5,28.1c-0.7,0-1.3-0.6-1.3-1.3s0.6-1.3,1.3-1.3s1.3,0.6,1.3,1.3S27.2,28.1,26.5,28.1z M31.3,29.4c-0.4,0-0.8-0.3-0.8-0.8
				c0-0.4,0.3-0.8,0.8-0.8s0.8,0.3,0.8,0.8C32,29.1,31.7,29.4,31.3,29.4z"/>
		</g>
		<g>
			<path class="st6" d="M47.9,39.4c-1.6-1.2-9.4-0.1-9.4-0.1c-0.5,0.3-1.2,0.5-1.9,0.6c1.1-0.3,1.9-0.6,2.2-1.1
				c0.1-0.2,0.2-0.5,0.1-0.8c-0.8-1.9-4.2-2.1-4.4-2.1c-0.5,0-1.3,0.1-2.1,0.1c0-0.1,0.1-0.2,0.1-0.3c0-0.4-0.3-0.8-0.8-0.8
				s-0.8,0.3-0.8,0.8c0,0.1,0,0.2,0.1,0.3c-2.3,0-4.8-0.1-5.5-0.6c-1.4-1.1-3.8-0.5-3.8-0.5l-2.8,0c0.2-0.2,0.3-0.5,0.3-0.8
				c0-0.7-0.6-1.3-1.3-1.3s-1.3,0.6-1.3,1.3c0,0.3,0.1,0.6,0.3,0.8l-6.7,0.1h0c-2.9,0.1-3.7,0.7-4.6,1.4c-0.4,0.3-0.7,0.6-1.3,0.8
				c-1.2,0.6-2,2.1-1.7,3.3c0.2,0.8,1,1.2,2,1.1c2.6-0.2,5.7,0.4,5.7,0.4l2.3,0.7c0.9,0.2,2,0.4,3.4,0.4c2.3,0,5-0.5,6.9-1.7
				c1.3-0.8,3.3-1.1,5-1.2c-1.5,0.4-2,1-2.1,1.7c-0.2,1,2.1,3.1,5,2.1c2.9-1,10.8,0.5,14.4,0.1C49.1,43.9,49.5,40.6,47.9,39.4z
				 M22.8,41.2C20,43,15.2,43.1,13,42.4l-2.4-0.7c-0.1,0-2.3-0.5-4.6-0.5c-0.4,0-0.9,0-1.3,0.1c-0.8,0.1-1.3-0.2-1.5-0.8
				c-0.2-0.8,0.3-2.2,1.4-2.7c0.6-0.3,1-0.6,1.4-0.9c0.8-0.6,1.6-1.2,4.3-1.3l11.4-0.2c0,0,2.2-0.5,3.5,0.4c1.4,1,8.5,0.6,9.3,0.5
				c0,0,3.3,0.2,3.9,1.8c0,0.1,0,0.2,0,0.3c-0.5,0.9-4.4,1.4-6.7,1.5C31.4,40.1,25.8,39.4,22.8,41.2z M41.4,41.6
				c-0.4,0-0.8-0.3-0.8-0.8c0-0.4,0.3-0.8,0.8-0.8s0.8,0.3,0.8,0.8C42.1,41.3,41.8,41.6,41.4,41.6z M44.8,43.6
				c-0.7,0-1.3-0.6-1.3-1.3s0.6-1.3,1.3-1.3c0.7,0,1.3,0.6,1.3,1.3S45.5,43.6,44.8,43.6z"/>
		</g>
		<g>
			<circle class="st6" cx="9.9" cy="39.8" r="0.8"/>
		</g>
	</g>
</g>
<g id="Layer_4">
	<g>
		<g>
			<path class="st7" d="M48.6,42.8l-0.1-10.5c0-0.5-0.3-0.9-0.7-1.2l-4.3-2.2h5v-4.3h-5.3v4.2l-8.7-4.5c-0.2-0.1-0.4-0.1-0.6,0
				c-0.2,0.1-0.3,0.2-0.4,0.4L31,30.3V14.1h5.3V9.7h-9.7l0.8,28.5h-3.5V17.8h1.9L25.8,14l-6.5,0.1l0.5,24.2h-3.4l-0.2-13.1h2.3v-3.7
				l-2,0l1.7-5.3L14,16.1l-0.2,1.4l2.4,4l-4.1,0l0.6,16.9h-1.8c-2.1,0-1.6,1.6-1.6,1.6l-1.6,0.1c0,0-3.5-0.1-4.6,1.4
				s0.8,2.8,0.8,2.8h44.2l0.1-0.6C48.5,43.3,48.6,43.1,48.6,42.8z M43.8,25.1H48v3.3h-4.3V25.1z M14.4,17.3l0.1-0.8l2.9,0.1
				l-1.2,3.7L14.4,17.3z M7.8,43c-0.4,0-0.8-0.3-0.8-0.8c0-0.4,0.3-0.8,0.8-0.8c0.4,0,0.8,0.3,0.8,0.8C8.6,42.6,8.2,43,7.8,43z
				 M34.1,24.7c0-0.1,0.1-0.1,0.1-0.1c0.1,0,0.1,0,0.2,0l13.2,6.9c0.3,0.1,0.4,0.4,0.4,0.7l0.1,10.5c0,0.2-0.1,0.3-0.3,0.3
				l-17.3,0.2l0.9-7.3l4.5,3.3l2.5-2.6h0.1l2.4,2.6c0.1,0.1,0.3,0.2,0.5,0.2c0.2,0,0.4-0.1,0.5-0.2l1.2-1.2l2.1-1.7l1.6,4.4L43.4,41
				l1.5-2c0.1-0.1,0.1-0.3,0-0.3c-0.1-0.1-0.3-0.1-0.3,0l-1.6,2.1c-0.1,0.1-0.1,0.3,0,0.4c0.1,0.1,0.2,0.2,0.3,0.2c0,0,0,0,0,0
				l3.6-0.1c0.2,0,0.3-0.1,0.4-0.2c0.1-0.1,0.1-0.3,0.1-0.5l-1.6-4.4c0-0.1-0.2-0.2-0.3-0.3c-0.1,0-0.3,0-0.4,0.1L43,37.6L39.9,33
				c-0.2-0.3-0.5-0.4-0.8-0.2l-3.6,1.9l-0.1,0L35,31.7c0-0.2-0.1-0.3-0.3-0.4c-0.1-0.1-0.3-0.1-0.5,0l-4.1,2L34.1,24.7z M31.6,33.2
				v2.3c-0.1,0-0.2-0.1-0.4,0c-0.1,0-0.2,0.1-0.2,0.2v-2.2L31.6,33.2z M35.7,10.2v3.3h-5.3v17.8c0,0,0,0,0,0l-0.9,2
				c-0.1,0.1,0,0.3,0.1,0.4c0.1,0.1,0.3,0.1,0.4,0.1l0.4-0.2V39l-2.6-0.5L27,10.2H35.7z M25.3,14.5l0.1,2.8h-1.9v24.3l-3.1-3.1
				l-0.5-23.9L25.3,14.5z M17.9,21.9v2.7h-2.3l0.2,16.8l-2.6-3l-0.6-16.5L17.9,21.9z M11.4,42.8c-0.2,0-0.4-0.2-0.4-0.4
				s0.2-0.4,0.4-0.4s0.4,0.2,0.4,0.4S11.7,42.8,11.4,42.8z M19.7,41.4c-0.4,0-0.8-0.3-0.8-0.8c0-0.4,0.3-0.8,0.8-0.8
				s0.8,0.3,0.8,0.8C20.4,41.1,20.1,41.4,19.7,41.4z M26.8,41.6c-0.7,0-1.2-0.5-1.2-1.2c0-0.7,0.5-1.2,1.2-1.2s1.2,0.5,1.2,1.2
				C28,41.1,27.5,41.6,26.8,41.6z"/>
		</g>
		<g>
			<path class="st7" d="M43.7,33.8c2,0.5,2.4-1.5,2.4-1.5l-4.4-1.3C41.7,30.9,41.6,33.3,43.7,33.8z"/>
		</g>
		<g>
			<path class="st7" d="M42.8,23.3h5.5v-4.8h-5.5V23.3z M43.3,19.1h4.5v3.8h-4.5V19.1z"/>
		</g>
		<g>
			<path class="st7" d="M42.3,17.4l5.2-0.9l0-0.2c0-0.1-0.3-2.1-0.5-2.8c-0.3-0.7-1.5-2.4-1.5-2.4l-0.2-0.2l-3.6,3.5L42.3,17.4z
				 M46.5,13.6c0.2,0.5,0.4,1.9,0.5,2.5l-4.3,0.8l-0.5-2.3l3-2.9C45.5,12.1,46.3,13.2,46.5,13.6z"/>
		</g>
		<g>
			<path class="st7" d="M42.1,8.2h-4.6v5.9l3.1-0.1L42.1,8.2z M38,13.6V8.7h3.4l-1.2,4.8L38,13.6z"/>
		</g>
		<g>
			<path class="st7" d="M26.6,7.6h-5.2l2.9,5.7L26.6,7.6z M22.2,8.1h3.7l-1.6,4L22.2,8.1z"/>
		</g>
		<g>
			<circle class="st7" cx="6.6" cy="8.5" r="2.7"/>
		</g>
		<g>
			<circle class="st7" cx="10" cy="11.4" r="1.2"/>
		</g>
		<g>
			<circle class="st7" cx="6.6" cy="32.5" r="1.2"/>
		</g>
		<g>
			<circle class="st7" cx="4.7" cy="35.6" r="0.8"/>
		</g>
	</g>
</g>
<g id="Layer_5" class="st0">
	<g class="st1">
		<path class="st8" d="M37.5,43.8l7.3,1l3.3-1.6l-3.2-3.8l-10.8-1.3l8.2-6l0.1-1.6L40,29l-0.2,1.6l-4.9,4.3V33l4-4.1L40,29v-1.1
			l3.8-4.2l-2.3-4.3l-7,9.6L32,29.3l0-0.4l3.2-6.8L31.8,17l-3.7,7.2l0.8-16.5l-4.4-5.9l-5.9,8.1l1.8,10.5l-3.3-4.9l-3.3-0.3l0.1,2.6
			l6.2,8.3v4h-0.8l-3.1-5.1l-3,0.1l-0.1,2.9l-1.5-0.7L8,22.5l-1.6-0.2l-0.3,4.3l6.8,7.7l-1.8,1.3l-1.8-0.3l-3.2-2.9L4,32.3l0.3,2.1
			l5.7,6.2l-0.8,0.7l-3.4,0.1l-2.3,2.8l4.1,2.2l10.7-2.5l2.5,0.1L18,46.7l1.7,1.4l5.7-4.5l9.4,4.3l4.3-0.6l-1.8-2.9l-9.2-3.2
			l7.3-0.3L37.5,43.8z M13.5,37.3l-1.9,0.5l-0.3-1.2l2.4-0.6L13.5,37.3z M17.9,38.6l-4.3-5.7l1.9-4.5L22.2,40L17.9,38.6z M25.8,37.9
			l-0.1-9.2l-3.6,3.1l-1-9l0.1,0.3l-1.6-13l4-5.5l0.9,13.7l2.9-4.5l0.4,0.4l-0.1,11.2l4.3-5.6l2.6,2.2l-3.8,7.3L25.8,37.9z"/>
	</g>
</g>
</svg>
